<svg width="15" height="15" viewBox="0 0 15 15" fill="none" xmlns="http://www.w3.org/2000/svg">
	<path fill-rule="evenodd" clip-rule="evenodd" d="M0.876999 7.5C0.876999 5.74347 1.57478 4.05888 2.81683 2.81683C4.05888 1.57478 5.74347 0.876999 7.5 0.876999C9.25653 0.876999 10.9411 1.57478 12.1832 2.81683C13.4252 4.05888 14.123 5.74347 14.123 7.5C14.123 9.25653 13.4252 10.9411 12.1832 12.1832C10.9411 13.4252 9.25653 14.123 7.5 14.123C5.74347 14.123 4.05888 13.4252 2.81683 12.1832C1.57478 10.9411 0.876999 9.25653 0.876999 7.5ZM7.5 1.827C6.40042 1.82704 5.32454 2.14663 4.40326 2.7469C3.48198 3.34717 2.755 4.20225 2.31077 5.2081C1.86654 6.21396 1.7242 7.32723 1.90106 8.4125C2.07793 9.49777 2.56638 10.5082 3.307 11.321C3.75662 10.6167 4.37652 10.0372 5.10938 9.63588C5.84225 9.23458 6.66445 9.02448 7.5 9.025C8.33556 9.02438 9.1578 9.23444 9.89068 9.63576C10.6236 10.0371 11.2434 10.6167 11.693 11.321C12.4336 10.5082 12.9221 9.49777 13.0989 8.4125C13.2758 7.32723 13.1335 6.21396 12.6892 5.2081C12.245 4.20225 11.518 3.34717 10.5967 2.7469C9.67546 2.14663 8.59958 1.82704 7.5 1.827ZM10.982 11.979C10.6281 11.3691 10.1202 10.863 9.50906 10.5112C8.89794 10.1595 8.20511 9.97459 7.5 9.975C6.79489 9.97459 6.10206 10.1595 5.49094 10.5112C4.87981 10.863 4.37187 11.3691 4.018 11.979C5.01276 12.7547 6.23856 13.175 7.5 13.173C8.812 13.173 10.02 12.727 10.982 11.979ZM5.15 6.505C5.15 5.88174 5.39759 5.28401 5.8383 4.8433C6.27901 4.40259 6.87674 4.155 7.5 4.155C8.12326 4.155 8.72099 4.40259 9.1617 4.8433C9.60241 5.28401 9.85 5.88174 9.85 6.505C9.85 7.12826 9.60241 7.72599 9.1617 8.1667C8.72099 8.60741 8.12326 8.855 7.5 8.855C6.87674 8.855 6.27901 8.60741 5.8383 8.1667C5.39759 7.72599 5.15 7.12826 5.15 6.505ZM7.5 5.105C7.31615 5.105 7.1341 5.14121 6.96424 5.21157C6.79439 5.28192 6.64005 5.38505 6.51005 5.51505C6.38005 5.64505 6.27692 5.79939 6.20657 5.96924C6.13621 6.1391 6.1 6.32115 6.1 6.505C6.1 6.68885 6.13621 6.8709 6.20657 7.04076C6.27692 7.21061 6.38005 7.36495 6.51005 7.49495C6.64005 7.62495 6.79439 7.72807 6.96424 7.79843C7.1341 7.86879 7.31615 7.905 7.5 7.905C7.8713 7.905 8.2274 7.7575 8.48995 7.49495C8.7525 7.2324 8.9 6.8763 8.9 6.505C8.9 6.1337 8.7525 5.7776 8.48995 5.51505C8.2274 5.2525 7.8713 5.105 7.5 5.105Z" fill="white" />
</svg>
