<svg xmlns="http://www.w3.org/2000/svg" xmlns:xlink="http://www.w3.org/1999/xlink" width="731.67004" height="435.02926" viewBox="0 0 731.67004 435.02926">
	<path d="M79.4806,306.78793c-3.16093,.34009-6.60921,.85056-10.27718,1.59744-15.55246,3.16687-15.87526,13.72736-15.73896,16.14847l-.10566-.06586c-1.56382,2.50858-2.54325,5.0473-3.13519,7.44336l-.71221-32.36652c.46052-.96021,.87954-2.04895,1.22889-3.16495,1.16419,3.58505,3.07256,6.97195,4.7176,6.74747,2.13909-.2919,3.07167-6.58597,2.67265-11.05881,2.72016,3.50314,7.2981,7.24973,9.02511,6.09445,1.38001-.92313,.56173-4.7236-.94492-8.17871,3.13929,1.89133,6.61613,3.1344,7.69503,1.93341,1.47227-1.63885-2.05557-7.23083-5.30905-10.35236,4.35496,.40613,9.89372-.28772,10.25684-2.26978,.2992-1.63309-2.99722-3.69385-6.5255-5.02014,3.5439-.93442,6.85789-2.56256,6.74798-4.17325-.13057-1.91339-5.05068-3.19543-9.29526-3.3905,3.20154-2.5047,6.14321-5.9671,5.24362-7.53302-.82704-1.43961-4.67439-.88199-8.22406,.38596,2.10064-3.00327,3.5775-6.38742,2.45277-7.54556-1.40106-1.44266-6.37359,1.04738-9.76711,3.79977,.66062-4.28796,.32665-9.70052-1.59659-10.19022-1.60895-.40967-3.88929,2.73886-5.4527,6.16866-.69097-3.5993-2.08979-7.01645-3.7042-7.01645-2.29982,0-4.16418,6.93399-4.16418,11.45149,0,.25537,.00677,.49573,.01843,.7254-.23083-.26761-.49538-.54718-.79707-.84018-3.24076-3.14728-9.51391-6.64064-11.11616-4.99081-1.12474,1.15814,.35212,4.5423,2.45277,7.54556-3.54967-1.26794-7.39702-1.82559-8.22406-.38596-1.11127,1.93439,3.63883,6.76324,7.4999,9.10498-.2321-.02795-.47595-.05151-.73547-.06921-4.50701-.30753-11.55183,1.08047-11.7084,3.37497-.10991,1.61066,3.20409,3.23883,6.74798,4.17325-3.52829,1.32629-6.8247,3.38705-6.5255,5.02014,.36312,1.98206,5.90188,2.6759,10.25684,2.26978-3.25348,3.12155-6.78132,8.7135-5.30905,10.35236,1.0789,1.20096,4.55573-.04211,7.69503-1.93341-1.50665,3.45511-2.32492,7.25558-.94492,8.17871,1.82373,1.21997,6.82541-3.026,9.4625-6.6795-.2687,4.46964,.80077,10.61005,2.9228,10.85236,.88742,.10135,1.82777-.84506,2.67643-2.30231l-2.40356,34.79013c-.56184,4.05161,3.03199,6.69543,3.35318,8.36435l.51842,23.5593c-.58508-1.67795-1.37316-3.3952-2.43548-5.09933l-.10566,.06589c.13628-2.42136-.18675-12.98154-15.73896-16.14835-3.66797-.74689-7.11625-1.25735-10.27718-1.59744-3.73116-.40146-5.1866,4.70612-1.81595,6.3558,4.88144,2.38916,9.4733,5.39935,11.86668,8.96402,6.11901,9.11359,14.5737,3.84543,15.77578,3.0275,1.34266,2.23508,2.22306,4.48688,2.77913,6.62946l.27531,12.51144c-.06744,.2959-.11414,.46158-.11777,.47403l.12902,.03781,.66628,30.27884,6.18057-.04965-2.21068-30.94946c.37149-1.66956,1.51435-7.35721,0-13.26407l-2.21068-24.31744h0c-.0055-.01877,.12548,.63843,0,0l-2.8837-9.55505c.41933-2.95605,1.3925-6.28098,3.36894-9.57098,1.20206,.8179,9.65677,6.08612,15.77579-3.0275,2.39338-3.5647,6.98524-6.57486,11.86668-8.96402,3.37065-1.64972,1.91521-6.75726-1.81595-6.3558l.00002,.00006Zm-28.23342,71.63849l-.11651-5.2952c.23499,2.00214,.2231,3.80933,.11651,5.2952Z" fill="#f2f2f2" />
	<path d="M0,414.28653c0,.66003,.53003,1.19,1.19006,1.19H730.48004c.65997,0,1.19-.52997,1.19-1.19,0-.65997-.53003-1.19-1.19-1.19H1.19006c-.66003,0-1.19006,.53003-1.19006,1.19Z" fill="#3f3d56" />
	<g>
		<circle cx="442.57913" cy="361.34189" r="54" fill="#3f3d56" />
		<circle cx="442.57913" cy="361.34189" r="36" fill="#fff" />
		<circle cx="442.57913" cy="361.34189" r="20.5" fill="#3f3d56" />
		<circle cx="130.57912" cy="361.34189" r="54" fill="#3f3d56" />
		<circle cx="130.57912" cy="361.34189" r="36" fill="#fff" />
		<path d="M516.45068,335.65951c-7.0343-17.72699-31.6145-71.89722-75.38574-89.8252-.33667-.13788-.69055-.2323-1.05078-.28394l-140.40552-20.11157c-2.31384-.33142-4.4668,1.2514-4.84045,3.55872l-2.46179,15.19843c-.16907,1.04352,.05078,2.11212,.62354,3.00067,7.13062,11.06281,52.8291,86.14526-20.35083,86.14526-72.0304,0-93.34912-52.37433-96.55017-61.61548-.30237-.87292-.31458-1.81287-.03638-2.69379l22.18445-70.25055c.39453-1.24982,.17627-2.52936-.46082-3.55219l9.75183-18.11243,17.86304,10.11218,9.24805,.11224,31.5708,16.5,6.4292-10.5-65.11108-32.47638s.11108-7.52362-20.88892-13.52362l-33-15-4,5,10,8,1,6,7,2,14,27-4,7.73621,4.85522,2.36725-1.39453-.31696c-2.00781-.4563-4.05664,.57898-4.88013,2.46619l-22.06299,50.56097c-.33752,.77362-.896,1.43042-1.60522,1.88806l-7.85925,5.07056c-.73438,.47382-1.3064,1.16071-1.63953,1.96863l-8.97632,21.77301c-.27979,.67841-.35962,1.38977-.28735,2.0777-11.18994,2.1203-44.08435,11.27728-62.1499,47.40839l21,17s32.91797-21.29877,87.32153,.88074c9.45569,14.71802,23.2511,26.9325,43.16772,28.0838,52.51074,3.03546,139.51074,6.03546,149.51074-5.96454,7.32092-8.78516,12.41357-14.27008,14.61694-16.57843,.77625-.81335,1.83582-1.28357,2.95959-1.31952l122.44885-3.91125c2.97253-.09491,4.94312-3.10883,3.84619-5.87317Z" fill="#5837D0" />
		<circle cx="178.57912" cy="162.34189" r="16" fill="#3f3d56" />
		<path d="M434.81348,245.8956c-.18945,0-.37988-.00391-.57129-.01074l-133.77832-5.17871c-5.91992-.22949-10.99023-3.99805-12.91699-9.60059l-1.83105-5.32861c-1.49414-4.34473-.84473-8.99902,1.78125-12.76855,2.62598-3.77002,6.76562-5.99268,11.3584-6.09863l138.2168-3.17725c4.28027-.09814,8.40039,1.73438,11.19434,5.03271,2.79297,3.29736,3.93164,7.62402,3.12305,11.86963l-2.60645,13.68359c-1.29297,6.78809-7.11914,11.57715-13.96973,11.57715Z" fill="#3f3d56" />
		<circle cx="130.57912" cy="361.34189" r="20.5" fill="#3f3d56" />
		<path d="M488.55762,302.9786c-3.20215,0-6.25098-1.71484-7.87598-4.65527l-10.13477-18.33984c-1.60547-2.90527-1.51367-6.31934,.24512-9.13379,1.75879-2.81543,4.79688-4.4043,8.10254-4.22266l18.38574,.94238c3.42383,.17578,6.5,2.3291,7.83691,5.48828l5.37305,12.69727c.98242,2.3252,.95801,4.87402-.06836,7.17969-1.02734,2.30469-2.90723,4.02734-5.29297,4.85059l-13.62402,4.69727c-.97266,.33594-1.9668,.49609-2.94727,.49609Z" fill="#3f3d56" />
		<path d="M256.00879,424.86825c-.15234,0-.30566-.00879-.45996-.02539l-4.08301-.4541c-1.33398-.14844-2.48828-.89746-3.16797-2.05566-.67969-1.15723-.77051-2.53125-.25-3.76855l21.2373-50.43848,.46094,.19434-.46094-.19434c.58301-1.38477,1.87109-2.36035,3.36133-2.54688,1.4502-.18457,2.86426,.38574,3.78711,1.5166,.92285,1.12988,1.19531,2.62988,.72949,4.0127l-17.1543,50.89258c-.57812,1.71777-2.21582,2.86719-4,2.86719Z" fill="#3f3d56" />
	</g>
	<path d="M366.27542,72.88192s-7.76959-15.53917-6.21567-29.52443l-25.85873,13.40338,.99603,25.44455,31.07834-9.3235h.00003Z" fill="#a0616a" />
	<circle cx="350.22806" cy="40.61132" r="23.32656" fill="#a0616a" />
	<g>
		<polygon points="374.05594 406.92752 359.82169 406.92614 353.05038 352.02206 374.05878 352.02353 374.05594 406.92752" fill="#a0616a" />
		<path d="M325.28766,406.60464h0c-.44321,.74643-.67706,3.15561-.67706,4.02365h0c0,2.66815,2.16293,4.83115,4.83115,4.83115h44.08176c1.82019,0,3.29584-1.47556,3.29584-3.29584v-1.83527s2.18069-5.51593-2.30896-12.31461c0,0-5.58002,5.32346-13.918-3.0145l-2.4588-4.45432-17.79831,13.01678-9.86533,1.21432c-2.15833,.26566-4.0719-.04123-5.18213,1.82858h-.00018l.00003,.00003Z" fill="#2f2e41" />
	</g>
	<path d="M332.08923,72.88192l34.18619-4.66175,26.4166,12.43134,1.55392,96.34287s-64.98312,7.76959-75.22427-2.33089c-10.24118-10.10046-2.47159-90.90417-2.47159-90.90417l15.53918-10.87742s-.00003,0-.00003,0Z" fill="#e6e6e6" />
	<path d="M344.39355,46.55382h-6.2709s-5.44092-6.69742-4.70895-2.61672c.73199,4.0807-2.19598,8.47264-2.19598,8.47264l-4.39194-1.46398s-8.78387-36.93378,17.56775-38.9626,32.20755,18.46689,32.20755,18.46689c0,0-1.46399,10.24786-4.39194,7.3199s-19.03174-4.39194-19.03174-4.39194l-8.78387,13.17582s.00003,0,.00003,0Z" fill="#2f2e41" />
	<g>
		<polygon points="327.8045 394.58812 314.1054 398.4543 292.67102 347.45552 312.88949 341.74883 327.8045 394.58812" fill="#a0616a" />
		<path d="M280.78314,407.52803h0c-.22372,.83875,.20581,3.22086,.44168,4.05624h0c.72495,2.56778,3.39423,4.06171,5.96207,3.33676l42.42343-11.97733c1.75174-.49454,2.77094-2.31552,2.27634-4.06735l-.49866-1.7662s.59995-5.90091-5.56805-11.22397c0,0-3.92368,6.63931-14.21347,.88049l-3.57657-3.61865-13.59201,17.36301-9.16428,3.84912c-2.00497,.84207-3.9299,1.06668-4.4903,3.16785l-.00015,.00003-.00003-.00003v.00003Z" fill="#2f2e41" />
	</g>
	<path d="M389.58417,167.67088l4.66174,14.09538v48.45287l-13.98526,146.23955h-27.32202l-3.08337-104.39389,2.43488-51.5607-52.10775,78.83646,22.905,56.30733-25.20529,16.81168s-37.69778-85.91206-32.05721-94.23532c5.64059-8.32324,56.16374-106.58907,56.16374-106.58907,0,0,67.59552-2.41042,67.59552-3.96432l.00003,.00003v.00002Z" fill="#2f2e41" />
	<g>
		<path d="M403.56943,111.72985l7.51263,12.30434s10.62048,41.74319,0,41.91298-32.06332-21.27306-32.06332-21.27306l2.79584-11.18944,7.76959,3.10783-1.55392-24.86268h15.53918s0,.00002,0,.00002Z" fill="#a0616a" />
		<path d="M380.26068,80.45572s24.86267-4.38033,27.19357,11.89297c2.33087,16.27331,3.62784,31.68549,3.62784,31.68549l-26.93661,2.23151-3.8848-45.80998s0,.00002,0,.00002Z" fill="#e6e6e6" />
		<ellipse cx="374.22907" cy="135.16628" rx="7.01523" ry="14.03044" transform="translate(47.03315 361.57333) rotate(-54.54076)" fill="#a0616a" />
	</g>
	<g>
		<path d="M386.01715,192.41719l-22.31262-67.72848c-18.03754-15.89486-37.6058,22.37534-90.1362,.68176l16.52231,76.61103c39.71683-21.4702,73.90308-29.87926,95.92651-9.56432Z" fill="#fff" />
		<path d="M290.09033,203.97923c-.14258,0-.28516-.03027-.41797-.0918-.28613-.13135-.49316-.38965-.55957-.69727l-16.52246-76.61133c-.07812-.36328,.05078-.74023,.33691-.97852,.28516-.23828,.67871-.29834,1.02246-.15674,29.8418,12.32423,49.10352,4.98682,63.16504-.37109,10.69141-4.07373,19.13379-7.28809,27.25098-.13672,.13379,.11768,.2334,.26855,.28906,.4375l22.3125,67.72852c.14258,.43262-.02539,.90723-.40918,1.15381-.38281,.24561-.88574,.20264-1.21875-.10596-19.36328-17.86084-49.47852-14.77734-94.77344,9.70947-.14844,.08008-.31152,.12012-.47559,.12012Zm-15.14746-75.97899l15.84473,73.46825c43.46094-23.2749,73.22754-26.86182,93.16211-11.13428l-21.1084-64.07373c-7.15137-6.12402-14.6582-3.26367-25.01367,.68115-14.10059,5.37158-33.30762,12.68994-62.88477,1.05859v.00002Z" fill="#3f3d56" />
	</g>
	<g>
		<path d="M308.16824,92.42209l-14.1174,2.92164s-37.73624,20.76694-30.60358,28.6377c7.13266,7.87077,37.44067,8.8765,37.44067,8.8765l6.25989-9.6868-7.57794-3.54965,19.21573-15.85319-10.6174-11.34624v.00003h.00003Z" fill="#a0616a" />
		<path d="M346.92972,88.07289s-13.78943-21.1469-27.26431-11.72987c-13.47488,9.41706-25.61456,19.00067-25.61456,19.00067l16.77548,21.19302,36.10342-28.46383-.00003,.00002v-.00002Z" fill="#e6e6e6" />
		<ellipse cx="311.10298" cy="129.85882" rx="7.0152" ry="14.03043" transform="translate(122.11261 409.02009) rotate(-78.55861)" fill="#a0616a" />
	</g>
</svg>
