<svg xmlns="http://www.w3.org/2000/svg" viewBox="0 0 500 500">
	<g id="ridebuddies--background-complete--inject-2">
		<rect x="416.78" y="398.49" width="33.12" height="0.25" style="fill:#ebebeb">
		</rect>
		<rect x="322.53" y="401.21" width="8.69" height="0.25" style="fill:#ebebeb">
		</rect>
		<rect x="396.59" y="389.21" width="19.19" height="0.25" style="fill:#ebebeb">
		</rect>
		<rect x="52.46" y="390.89" width="43.19" height="0.25" style="fill:#ebebeb">
		</rect>
		<rect x="104.56" y="390.89" width="6.33" height="0.25" style="fill:#ebebeb">
		</rect>
		<rect x="131.47" y="395.11" width="93.68" height="0.25" style="fill:#ebebeb">
		</rect>
		<path d="M238.4,337.8H45.3a5.71,5.71,0,0,1-5.71-5.71V60.66A5.71,5.71,0,0,1,45.3,55H238.4a5.71,5.71,0,0,1,5.71,5.71V332.09A5.71,5.71,0,0,1,238.4,337.8ZM45.3,55.2a5.47,5.47,0,0,0-5.46,5.46V332.09a5.47,5.47,0,0,0,5.46,5.46H238.4a5.47,5.47,0,0,0,5.46-5.46V60.66a5.47,5.47,0,0,0-5.46-5.46Z" style="fill:#ebebeb">
		</path>
		<path d="M454.7,337.8H261.6a5.71,5.71,0,0,1-5.71-5.71V60.66A5.71,5.71,0,0,1,261.6,55H454.7a5.71,5.71,0,0,1,5.71,5.71V332.09A5.71,5.71,0,0,1,454.7,337.8ZM261.6,55.2a5.47,5.47,0,0,0-5.46,5.46V332.09a5.47,5.47,0,0,0,5.46,5.46H454.7a5.47,5.47,0,0,0,5.46-5.46V60.66a5.47,5.47,0,0,0-5.46-5.46Z" style="fill:#ebebeb">
		</path>
		<rect y="382.4" width="500" height="0.25" style="fill:#ebebeb">
		</rect>
		<path d="M194.25,327.34s9.74-15.24,10.2-9.86c0,0,7.65-6.67,8.27-.68,0,0,6.7-5.42,6.3.28,0,0,5.41-2.52,3.84,3.48,0,0,9.23,2.09,3.53,4.39,0,0,8.65,3,2.8,6.52,0,0,3.9,6.14-.28,7,0,0,.12,7.6-4.59,7.93,0,0,2.3,8.42-1.43,7.28,0,0,1.8,7.87-5.74,5.49,0,0-2.93,4-8.19-.41,0,0,.46,7.8-5.56.78,0,0-7.39,2.91-6.63-4.19,0,0-4.07,5.13-5.68-.81,0,0-5.54,10.38-8.71-2.79,0,0-6.53,2.39-3-5.65,0,0-7.73-.49-2.17-4.09,0,0-7.09-3.57,3-5,0,0-5.11-4.13,3.49-5.59C183.7,331.36,182.57,328.89,194.25,327.34Z" style="fill:#ebebeb">
		</path>
		<polygon points="195.7 382.62 202.97 382.62 201.57 370.5 201.46 359.3 208.33 350.11 218.01 342.31 224.97 341.91 225.09 341.13 218.72 340.99 221.13 337.16 220.41 336.64 217.05 340.88 208.58 347.56 210.69 335.59 215.93 325.92 215.13 325.12 209.76 334.15 201.46 326.88 200.86 327.56 209.25 335.97 206.41 348.81 200.28 356.27 198.34 348.52 197.5 340.76 200.32 338.07 200.02 337.27 196.66 339.75 192.58 334.88 192.22 335.68 195.53 340.52 195.98 347.77 186.82 342.63 186.34 343.32 196.25 350.11 197.98 357.83 198.7 364.19 198.34 366.54 197.62 371.34 195.7 382.62" style="fill:#e0e0e0">
		</polygon>
		<path d="M142.56,263.66s-44.87,15.53-36.42,3c0,0-38.66,9.44-29.46-4.7,0,0-20-2.47-9.39-14.13,0,0-12.47-9.66.89-19.86,0,0-5.46-22.48,9.34-17.18,0,0-5.1-15.87,12.15-13,0,0,4.39-16.28,13.76-10.56,0,0,5.66-27,15.16-19.22,0,0,10.23-22.45,15.32-13.23,0,0,10.22-20.36,20.39-1.56,0,0,12.46-3.4,14.81,15.68,0,0,14.58-10.95,11.87,8.36,0,0,19.64,12.39,13.74,18.82,0,0,20.29-1.13,13.05,14.68,0,0,19.38,2.75,6,26.57,0,0,15.3,12,3.67,18.38,0,0,6.48,12.42-10.31,10.21,0,0,2.66,12.9-19-2.15,0,0,6,19.94-12.76,7.56C175.36,271.28,167.38,281.42,142.56,263.66Z" style="fill:#f0f0f0">
		</path>
		<path d="M139.48,304.21s34.11,16.45,28.57,5.74c0,0,29.76,11,23.77-1,0,0,16.09-.1,8.75-10.32,0,0,10.77-6.5,1.12-15.81,0,0,6.41-17.31-5.8-14.48,0,0,5.5-12.1-8.42-11.45,0,0-2-13.3-9.93-9.64,0,0-2-21.92-10.23-16.62,0,0-6-18.74-10.92-11.9,0,0-6.21-17.07-16-3.12,0,0-9.56-3.84-13.18,11.06,0,0-10.53-10-10.17,5.52,0,0-16.7,8-12.63,13.64,0,0-16-2.77-11.69,10.42,0,0-15.61.39-7.19,20.5,0,0-13.23,8.11-4.61,14.22,0,0-6.27,9.24,7.22,9,0,0-3.29,10,15.25.05,0,0-6.64,15.24,9.41,7.17C112.79,307.22,118.17,316,139.48,304.21Z" style="fill:#f0f0f0">
		</path>
		<polygon points="120.75 382.88 141.99 382.88 133.71 343.52 137.56 307.13 157.63 277.28 185.88 262.87 206.2 261.57 206.55 259.01 187.98 258.57 194.99 246.13 192.88 244.42 183.09 258.23 158.35 269.01 153.32 230.13 174.9 198.7 172.57 196.1 150.61 225.45 126.35 201.82 124.6 204.02 149.12 231.34 152.01 273.05 134.12 297.29 122.15 276.03 121.8 246.91 130.05 238.19 129.16 235.59 119.35 243.64 110.24 235.59 109.19 238.19 116.07 246.13 115.27 273.59 88.53 263.13 87.13 265.37 116.07 281.17 127.4 302.37 125.3 323.04 109.19 310.82 107.79 314.11 124.25 330.66 122.15 346.25 120.75 382.88" style="fill:#e0e0e0">
		</polygon>
		<rect x="332.54" y="172.58" width="55.61" height="209.31" style="fill:#f5f5f5">
		</rect>
		<rect x="286.47" y="156.49" width="50.08" height="225.4" style="fill:#f0f0f0">
		</rect>
		<rect x="245.19" y="265.48" width="50.08" height="116.41" style="fill:#f5f5f5">
		</rect>
		<rect x="379.77" y="236.32" width="55.61" height="145.57" style="fill:#f0f0f0">
		</rect>
		<rect x="295.27" y="178.62" width="5.12" height="5.17" style="fill:#fff">
		</rect>
		<rect x="322.62" y="178.62" width="5.12" height="5.17" style="fill:#fff">
		</rect>
		<rect x="295.27" y="195.37" width="5.12" height="5.17" style="fill:#fff">
		</rect>
		<rect x="308.95" y="195.37" width="5.12" height="5.17" style="fill:#fff">
		</rect>
		<rect x="322.62" y="212.11" width="5.12" height="5.17" style="fill:#fff">
		</rect>
		<rect x="295.27" y="228.86" width="5.12" height="5.17" style="fill:#fff">
		</rect>
		<rect x="308.95" y="228.86" width="5.12" height="5.17" style="fill:#fff">
		</rect>
		<rect x="308.95" y="245.6" width="5.12" height="5.17" style="fill:#fff">
		</rect>
		<rect x="322.62" y="245.6" width="5.12" height="5.17" style="fill:#fff">
		</rect>
		<rect x="308.95" y="262.35" width="5.12" height="5.17" style="fill:#fff">
		</rect>
		<rect x="322.62" y="262.35" width="5.12" height="5.17" style="fill:#fff">
		</rect>
		<rect x="322.62" y="279.09" width="5.12" height="5.17" style="fill:#fff">
		</rect>
		<rect x="308.95" y="295.84" width="5.12" height="5.17" style="fill:#fff">
		</rect>
		<rect x="371.45" y="306.79" width="5.12" height="5.17" transform="translate(748.03 618.75) rotate(180)" style="fill:#fff">
		</rect>
		<rect x="344.1" y="306.79" width="5.12" height="5.17" transform="translate(693.33 618.75) rotate(180)" style="fill:#fff">
		</rect>
		<rect x="371.45" y="290.05" width="5.12" height="5.17" transform="translate(748.03 585.26) rotate(180)" style="fill:#fff">
		</rect>
		<rect x="357.78" y="290.05" width="5.12" height="5.17" transform="translate(720.68 585.26) rotate(180)" style="fill:#fff">
		</rect>
		<rect x="344.1" y="273.3" width="5.12" height="5.17" transform="translate(693.33 551.77) rotate(180)" style="fill:#fff">
		</rect>
		<rect x="371.45" y="256.56" width="5.12" height="5.17" transform="translate(748.03 518.28) rotate(180)" style="fill:#fff">
		</rect>
		<rect x="357.78" y="256.56" width="5.12" height="5.17" transform="translate(720.68 518.28) rotate(180)" style="fill:#fff">
		</rect>
		<rect x="357.78" y="239.81" width="5.12" height="5.17" transform="translate(720.68 484.79) rotate(180)" style="fill:#fff">
		</rect>
		<rect x="344.1" y="239.81" width="5.12" height="5.17" transform="translate(693.33 484.79) rotate(180)" style="fill:#fff">
		</rect>
		<rect x="357.78" y="223.07" width="5.12" height="5.17" transform="translate(720.68 451.3) rotate(180)" style="fill:#fff">
		</rect>
		<rect x="344.1" y="223.07" width="5.12" height="5.17" transform="translate(693.33 451.3) rotate(180)" style="fill:#fff">
		</rect>
		<rect x="344.1" y="206.32" width="5.12" height="5.17" transform="translate(693.33 417.81) rotate(180)" style="fill:#fff">
		</rect>
		<rect x="357.78" y="189.58" width="5.12" height="5.17" transform="translate(720.68 384.32) rotate(180)" style="fill:#fff">
		</rect>
		<rect x="418.69" y="245.6" width="5.12" height="5.17" transform="translate(842.51 496.37) rotate(180)" style="fill:#fff">
		</rect>
		<rect x="391.34" y="245.6" width="5.12" height="5.17" transform="translate(787.8 496.37) rotate(180)" style="fill:#fff">
		</rect>
		<rect x="418.69" y="262.35" width="5.12" height="5.17" transform="translate(842.51 529.86) rotate(180)" style="fill:#fff">
		</rect>
		<rect x="405.01" y="262.35" width="5.12" height="5.17" transform="translate(815.15 529.86) rotate(180)" style="fill:#fff">
		</rect>
		<rect x="391.34" y="279.09" width="5.12" height="5.17" transform="translate(787.8 563.35) rotate(180)" style="fill:#fff">
		</rect>
		<rect x="418.69" y="295.84" width="5.12" height="5.17" transform="translate(842.51 596.84) rotate(180)" style="fill:#fff">
		</rect>
		<rect x="405.01" y="295.84" width="5.12" height="5.17" transform="translate(815.15 596.84) rotate(180)" style="fill:#fff">
		</rect>
		<rect x="405.01" y="312.58" width="5.12" height="5.17" transform="translate(815.15 630.33) rotate(180)" style="fill:#fff">
		</rect>
		<rect x="391.34" y="312.58" width="5.12" height="5.17" transform="translate(787.8 630.33) rotate(180)" style="fill:#fff">
		</rect>
		<rect x="405.01" y="329.32" width="5.12" height="5.17" transform="translate(815.15 663.82) rotate(180)" style="fill:#fff">
		</rect>
		<rect x="391.34" y="329.32" width="5.12" height="5.17" transform="translate(787.8 663.82) rotate(180)" style="fill:#fff">
		</rect>
		<rect x="391.34" y="346.07" width="5.12" height="5.17" transform="translate(787.8 697.31) rotate(180)" style="fill:#fff">
		</rect>
		<rect x="405.01" y="362.81" width="5.12" height="5.17" transform="translate(815.15 730.8) rotate(180)" style="fill:#fff">
		</rect>
		<path d="M397.73,151.93c-10.33,5.16-38.28,8.18-45.28-7.41-8.28-18.45,11.46-3,11.46-3s0-12.17,6.58-12.17c9,0,8.23,11.13,8.23,11.13a8.62,8.62,0,0,1,8.74-4.35c6.31.68,2.63,8.89,2.63,8.89S406,147.82,397.73,151.93Z" style="fill:#f5f5f5">
		</path>
		<path d="M352.24,116.84c-20,6.89-74.9,8.44-79.21-20.33-5.12-34.14,24.62-12.27,24.62-12.27s.26-16,14-17.56,13.55,16.56,13.55,16.56,24.67-15.1,22.32,13.94C347.53,97.18,386,105.17,352.24,116.84Z" style="fill:#f5f5f5">
		</path>
		<path d="M182.28,126.13c-17.87,6.17-67,7.56-70.9-18.19-4.58-30.56,22-11,22-11s.23-14.3,12.54-15.71,12.13,14.82,12.13,14.82,22.08-13.51,20,12.48C178.06,108.54,212.51,115.69,182.28,126.13Z" style="fill:#f5f5f5">
		</path>
		<path d="M113.3,143c-8.57,4.27-31.75,6.78-37.56-6.15-6.87-15.31,9.5-2.46,9.5-2.46s0-10.1,5.47-10.1c7.44,0,6.82,9.24,6.82,9.24a7.15,7.15,0,0,1,7.25-3.61c5.23.56,2.18,7.37,2.18,7.37S120.13,139.57,113.3,143Z" style="fill:#f5f5f5">
		</path>
		<path d="M438.72,124.66c-6.43,3.21-23.84,5.09-28.2-4.62-5.16-11.49,7.14-1.84,7.14-1.84s0-7.58,4.1-7.58c5.59,0,5.12,6.93,5.12,6.93a5.38,5.38,0,0,1,5.45-2.71c3.92.42,1.63,5.54,1.63,5.54S443.85,122.1,438.72,124.66Z" style="fill:#f5f5f5">
		</path>
	</g>
	<g id="ridebuddies--Shadow--inject-2">
		<ellipse id="ridebuddies--path--inject-2" cx="250" cy="415.69" rx="193.89" ry="11.32" style="fill:#f5f5f5">
		</ellipse>
	</g>
	<g id="ridebuddies--Car--inject-2">
		<rect x="107.76" y="372.73" width="27.53" height="38.33" rx="9.63" style="fill:#263238">
		</rect>
		<rect x="107.76" y="372.73" width="27.53" height="38.33" rx="9.63" style="opacity:0.8">
		</rect>
		<rect x="271.11" y="372.73" width="27.53" height="38.33" rx="9.63" style="fill:#263238">
		</rect>
		<rect x="271.11" y="372.73" width="27.53" height="38.33" rx="9.63" style="opacity:0.8">
		</rect>
		<polygon points="149.99 228.07 146.27 228.07 149.89 220.21 156.68 220.21 149.99 228.07" style="fill:#263238">
		</polygon>
		<polygon points="255.66 228.07 259.38 228.07 255.76 220.21 248.98 220.21 255.66 228.07" style="fill:#263238">
		</polygon>
		<rect x="278.88" y="373.73" width="27.53" height="38.33" rx="9.63" style="fill:#263238">
		</rect>
		<g style="opacity:0.5">
			<path d="M292.64,408.75h0a1.53,1.53,0,0,1-1.53-1.53v-6.65a1.53,1.53,0,0,1,1.53-1.54h0a1.53,1.53,0,0,1,1.53,1.54v6.65A1.53,1.53,0,0,1,292.64,408.75Z">
			</path>
		</g>
		<g style="opacity:0.5">
			<path d="M292.64,394.43h0a1.52,1.52,0,0,1-1.53-1.53v-3.22a1.52,1.52,0,0,1,1.53-1.53h0a1.52,1.52,0,0,1,1.53,1.53v3.22A1.52,1.52,0,0,1,292.64,394.43Z">
			</path>
		</g>
		<g style="opacity:0.5">
			<path d="M285.76,408.75h0a1.54,1.54,0,0,1-1.54-1.53v-.52a1.53,1.53,0,0,1,1.54-1.53h0a1.53,1.53,0,0,1,1.53,1.53v.52A1.54,1.54,0,0,1,285.76,408.75Z">
			</path>
		</g>
		<g style="opacity:0.5">
			<path d="M285.76,401.52h0a1.53,1.53,0,0,1-1.54-1.53V389.68a1.53,1.53,0,0,1,1.54-1.53h0a1.53,1.53,0,0,1,1.53,1.53V400A1.53,1.53,0,0,1,285.76,401.52Z">
			</path>
		</g>
		<g style="opacity:0.5">
			<path d="M299.52,408.75h0a1.53,1.53,0,0,1-1.53-1.53v-.52a1.52,1.52,0,0,1,1.53-1.53h0a1.52,1.52,0,0,1,1.53,1.53v.52A1.53,1.53,0,0,1,299.52,408.75Z">
			</path>
		</g>
		<g style="opacity:0.5">
			<path d="M299.52,401.52h0A1.52,1.52,0,0,1,298,400V389.68a1.52,1.52,0,0,1,1.53-1.53h0a1.52,1.52,0,0,1,1.53,1.53V400A1.52,1.52,0,0,1,299.52,401.52Z">
			</path>
		</g>
		<rect x="99" y="373.73" width="27.53" height="38.33" rx="9.63" style="fill:#263238">
		</rect>
		<g style="opacity:0.5">
			<path d="M112.76,408.75h0a1.54,1.54,0,0,1-1.53-1.53v-6.65a1.54,1.54,0,0,1,1.53-1.54h0a1.54,1.54,0,0,1,1.54,1.54v6.65A1.54,1.54,0,0,1,112.76,408.75Z">
			</path>
		</g>
		<g style="opacity:0.5">
			<path d="M112.76,394.43h0a1.53,1.53,0,0,1-1.53-1.53v-3.22a1.53,1.53,0,0,1,1.53-1.53h0a1.53,1.53,0,0,1,1.54,1.53v3.22A1.53,1.53,0,0,1,112.76,394.43Z">
			</path>
		</g>
		<g style="opacity:0.5">
			<path d="M105.88,408.75h0a1.54,1.54,0,0,1-1.53-1.53v-.52a1.53,1.53,0,0,1,1.53-1.53h0a1.53,1.53,0,0,1,1.54,1.53v.52A1.54,1.54,0,0,1,105.88,408.75Z">
			</path>
		</g>
		<g style="opacity:0.5">
			<path d="M105.88,401.52h0a1.53,1.53,0,0,1-1.53-1.53V389.68a1.53,1.53,0,0,1,1.53-1.53h0a1.53,1.53,0,0,1,1.54,1.53V400A1.53,1.53,0,0,1,105.88,401.52Z">
			</path>
		</g>
		<g style="opacity:0.5">
			<path d="M119.65,408.75h0a1.54,1.54,0,0,1-1.54-1.53v-.52a1.53,1.53,0,0,1,1.54-1.53h0a1.53,1.53,0,0,1,1.53,1.53v.52A1.54,1.54,0,0,1,119.65,408.75Z">
			</path>
		</g>
		<g style="opacity:0.5">
			<path d="M119.65,401.52h0a1.53,1.53,0,0,1-1.54-1.53V389.68a1.53,1.53,0,0,1,1.54-1.53h0a1.53,1.53,0,0,1,1.53,1.53V400A1.53,1.53,0,0,1,119.65,401.52Z">
			</path>
		</g>
		<path d="M288.19,282.89H117.35L99,318.19a19.21,19.21,0,0,0-2.17,8.89v58.35a4.4,4.4,0,0,0,4.4,4.4H304.41a4.4,4.4,0,0,0,4.4-4.4V327.1a19.29,19.29,0,0,0-2.19-8.93Z" style="fill:#5837D0">
		</path>
		<path d="M308.81,385.43V343.59a13.49,13.49,0,0,1-13.5,13.5h-185a13.49,13.49,0,0,1-13.5-13.5v41.84a4.4,4.4,0,0,0,4.4,4.4H304.41A4.4,4.4,0,0,0,308.81,385.43Z" style="opacity:0.30000000000000004">
		</path>
		<path d="M286.55,281.74h8.23V270.13a22.75,22.75,0,0,1,7-1c7.64,0,13.83,3.43,13.83,7.66s-6.19,7.67-13.83,7.67a24.29,24.29,0,0,1-4.27-.39l-7.71,3.07Z" style="fill:#5837D0">
		</path>
		<path d="M294.78,277.92v-7.79a22.75,22.75,0,0,1,7-1c7.64,0,13.83,3.43,13.83,7.66a4.23,4.23,0,0,1-.05.5,128.68,128.68,0,0,1-14.81.78C298.66,278,296.68,278,294.78,277.92Z" style="fill:#fff;opacity:0.5">
		</path>
		<path d="M119.46,281.74h-8.23V270.13a22.75,22.75,0,0,0-7-1c-7.63,0-13.82,3.43-13.82,7.66s6.19,7.67,13.82,7.67a24.2,24.2,0,0,0,4.27-.39l7.72,3.07Z" style="fill:#5837D0">
		</path>
		<path d="M111.23,277.92v-7.79a22.75,22.75,0,0,0-7-1c-7.63,0-13.82,3.43-13.82,7.66a4.21,4.21,0,0,0,0,.5,128.81,128.81,0,0,0,14.81.78C107.35,278,109.34,278,111.23,277.92Z" style="fill:#fff;opacity:0.5">
		</path>
		<path d="M260.16,228.07H145.6a9.23,9.23,0,0,0-8.58,5.84l-19.37,49H288l-19.26-49A9.23,9.23,0,0,0,260.16,228.07Z" style="fill:#263238">
		</path>
		<path d="M260.16,228.07H145.6a9.23,9.23,0,0,0-8.58,5.84l-19.37,49H288l-19.26-49A9.23,9.23,0,0,0,260.16,228.07Z" style="fill:#fff;opacity:0.8">
		</path>
		<path d="M284.88,281.74l-17-43.21a5,5,0,0,0-4.66-3.18H142.53a5,5,0,0,0-4.66,3.17l-17.1,43.22Z" style="fill:#263238">
		</path>
		<path d="M284.88,281.74l-17-43.21a5,5,0,0,0-4.66-3.18H142.53a5,5,0,0,0-4.66,3.17l-17.1,43.22Z" style="fill:#fff;opacity:0.2">
		</path>
		<rect x="137.47" y="207.76" width="130.71" height="14.57" rx="5.31" style="fill:#263238">
		</rect>
		<rect x="137.47" y="207.76" width="130.71" height="14.57" rx="5.31" style="fill:#fff;opacity:0.5">
		</rect>
		<rect x="140.54" y="210.82" width="14.03" height="8.43" rx="2.93" style="fill:#5837D0">
		</rect>
		<rect x="156.27" y="210.82" width="14.03" height="8.43" rx="2.93" style="fill:#5837D0">
		</rect>
		<rect x="172.01" y="210.82" width="14.03" height="8.43" rx="2.93" style="fill:#5837D0">
		</rect>
		<rect x="187.74" y="210.82" width="14.03" height="8.43" rx="2.93" style="fill:#5837D0">
		</rect>
		<rect x="203.88" y="210.82" width="14.03" height="8.43" rx="2.93" style="fill:#5837D0">
		</rect>
		<rect x="187.74" y="210.82" width="14.03" height="8.43" rx="2.93" style="fill:#fff;opacity:0.7000000000000001">
		</rect>
		<rect x="203.88" y="210.82" width="14.03" height="8.43" rx="2.93" style="fill:#fff;opacity:0.7000000000000001">
		</rect>
		<rect x="219.61" y="210.82" width="14.03" height="8.43" rx="2.93" style="fill:#5837D0">
		</rect>
		<rect x="235.35" y="210.82" width="14.03" height="8.43" rx="2.93" style="fill:#5837D0">
		</rect>
		<rect x="251.08" y="210.82" width="14.03" height="8.43" rx="2.93" style="fill:#5837D0">
		</rect>
		<g style="opacity:0.4">
			<rect x="219.61" y="210.82" width="14.03" height="8.43" rx="2.93">
			</rect>
			<rect x="235.35" y="210.82" width="14.03" height="8.43" rx="2.93">
			</rect>
			<rect x="251.08" y="210.82" width="14.03" height="8.43" rx="2.93">
			</rect>
		</g>
		<path d="M143.41,331.43l-30-7.09a6.65,6.65,0,0,1-5-7.72L110.2,307a6.65,6.65,0,0,1,9.34-4.8l19.93,9.25a12.25,12.25,0,0,1,6.76,8.23l1.74,7.15A3.8,3.8,0,0,1,143.41,331.43Z" style="fill:#fff;opacity:0.5">
		</path>
		<circle cx="135.52" cy="320.07" r="7.41" style="fill:#fff;opacity:0.5">
		</circle>
		<g style="opacity:0.9">
			<path d="M137.22,316.77a4.33,4.33,0,0,0-.85-.31,1,1,0,0,1-.85-1v-.25a1,1,0,0,1,1.25-1,5.58,5.58,0,0,1,1.61.59,1,1,0,0,1,.3,1.57l-.17.2A1,1,0,0,1,137.22,316.77Z" style="fill:#fff">
			</path>
		</g>
		<g style="opacity:0.9">
			<path d="M135.52,326.07a6,6,0,0,1-5.87-4.75,1,1,0,0,1,1-1.25h.25a1,1,0,0,1,1,.85,3.71,3.71,0,0,0,7.22,0,1,1,0,0,1,1-.85h.25a1,1,0,0,1,1,1.25A6,6,0,0,1,135.52,326.07Z" style="fill:#fff">
			</path>
		</g>
		<circle cx="118.91" cy="313.41" r="7.41" transform="translate(-213.43 357.13) rotate(-76.72)" style="fill:#fff;opacity:0.5">
		</circle>
		<g style="opacity:0.9">
			<path d="M120.61,310.11a3.68,3.68,0,0,0-.86-.31,1.05,1.05,0,0,1-.84-1v-.25a1,1,0,0,1,1.25-1,6.23,6.23,0,0,1,1.61.59,1,1,0,0,1,.3,1.58l-.17.19A1,1,0,0,1,120.61,310.11Z" style="fill:#fff">
			</path>
		</g>
		<g style="opacity:0.9">
			<path d="M118.91,319.41a6,6,0,0,1-5.87-4.75,1,1,0,0,1,1-1.25h.25a1,1,0,0,1,1,.84,3.71,3.71,0,0,0,7.22,0,1,1,0,0,1,1-.84h.25a1,1,0,0,1,1,1.25A6,6,0,0,1,118.91,319.41Z" style="fill:#fff">
			</path>
		</g>
		<path d="M162,323.07a4,4,0,0,0-3.6,5.84c1.66,3.3,3.91,7,6.09,8.41,16.23,10.18,60.41,10.18,76.63,0,2.19-1.38,4.43-5.11,6.1-8.41a4,4,0,0,0-3.61-5.84Z" style="fill:#263238">
		</path>
		<path d="M162,323.07a4,4,0,0,0-3.6,5.84c1.66,3.3,3.91,7,6.09,8.41,16.23,10.18,60.41,10.18,76.63,0,2.19-1.38,4.43-5.11,6.1-8.41a4,4,0,0,0-3.61-5.84Z" style="fill:#fff;opacity:0.6000000000000001">
		</path>
		<path d="M267.85,369.52a51.23,51.23,0,0,1,3.57,6.1,4.77,4.77,0,0,1-4.26,6.9H138.49a4.76,4.76,0,0,1-4.25-6.9,49.85,49.85,0,0,1,3.56-6.1,9.12,9.12,0,0,1,7.46-3.83H260.39A9.12,9.12,0,0,1,267.85,369.52Z" style="fill:#fff;opacity:0.5">
		</path>
		<rect x="171.15" y="347.28" width="63.34" height="15.33" style="fill:#fff;opacity:0.8">
		</rect>
		<path d="M143.47,282.89c-2.23,2.64-3.26,8.05-1.91,12.84,2.29,8.17,5.39,17.42,8.41,20.82H255.68c3-3.4,6.12-12.65,8.41-20.82,1.35-4.79.32-10.2-1.91-12.84Z" style="fill:#263238">
		</path>
		<path d="M143.47,282.89c-2.23,2.64-3.26,8.05-1.91,12.84,2.29,8.17,5.39,17.42,8.41,20.82H255.68c3-3.4,6.12-12.65,8.41-20.82,1.35-4.79.32-10.2-1.91-12.84Z" style="fill:#fff;opacity:0.8">
		</path>
		<path d="M175.91,293.73a2.38,2.38,0,0,1,1,1.92,5.93,5.93,0,0,1-.84,3,9.57,9.57,0,0,1-2.38,2.93,10.68,10.68,0,0,1-3.47,1.92,12.8,12.8,0,0,1-4.15.67h-3.28l-3,4.21h-4l12-15.27h5.65A4.24,4.24,0,0,1,175.91,293.73Zm-5.32,6.82a5.34,5.34,0,0,0,2-1.95c.51-.86.64-1.52.42-2s-.82-.68-1.78-.68h-2.62l-3.8,5.3h2.91A5.89,5.89,0,0,0,170.59,300.55Z" style="fill:#263238">
		</path>
		<path d="M177.85,307.57a4,4,0,0,1-2-2.83,6.76,6.76,0,0,1,.85-4.05,14.93,14.93,0,0,1,3-4,15.51,15.51,0,0,1,3.95-2.83,9.2,9.2,0,0,1,4.08-1,5.51,5.51,0,0,1,3.37,1,5.81,5.81,0,0,1,2,2.83,7.72,7.72,0,0,1,.28,4,8.35,8.35,0,0,1-1.91,4.05,10.59,10.59,0,0,1-3.95,2.83,13.26,13.26,0,0,1-5.18,1A8.82,8.82,0,0,1,177.85,307.57Zm8.37-2.61a6.53,6.53,0,0,0,2.31-1.74,6.13,6.13,0,0,0,1.28-2.53,5,5,0,0,0,0-2.53,3.13,3.13,0,0,0-1.12-1.73,3.24,3.24,0,0,0-2-.63,5.32,5.32,0,0,0-2.45.63,8.32,8.32,0,0,0-2.31,1.73,8.79,8.79,0,0,0-1.68,2.53,4.67,4.67,0,0,0-.44,2.53,2.51,2.51,0,0,0,1.13,1.74,4.38,4.38,0,0,0,2.43.62A6.87,6.87,0,0,0,186.22,305Z" style="fill:#263238">
		</path>
		<path d="M197.05,293.06h3c-.31,4.95-.47,7.43-.79,12.39h8.35c.1,1.15.14,1.73.24,2.88H195.05Z" style="fill:#263238">
		</path>
		<path d="M208.32,293.06h3l2.85,15.27h-4.05C209.41,302.22,209.05,299.17,208.32,293.06Z" style="fill:#263238">
		</path>
		<path d="M221.63,307.58a11.29,11.29,0,0,1-4.08-2.82,9.09,9.09,0,0,1-2.13-4.07,7.86,7.86,0,0,1,0-4.07,5.31,5.31,0,0,1,1.85-2.81,5.17,5.17,0,0,1,3.29-1,8.93,8.93,0,0,1,3.37.7,14.1,14.1,0,0,1,3.36,2c-.39.84-.6,1.26-1.06,2.09A7.13,7.13,0,0,0,222,295.8a3.24,3.24,0,0,0-2.08.63,2.84,2.84,0,0,0-1.05,1.73,5.11,5.11,0,0,0,.18,2.53,6.57,6.57,0,0,0,1.43,2.53,7,7,0,0,0,2.42,1.74,7.48,7.48,0,0,0,3,.62c1.67,0,2.82-.6,3.34-1.81,1.36.84,2,1.26,3.48,2.09a3.7,3.7,0,0,1-2,2,9.12,9.12,0,0,1-3.82.7A13.66,13.66,0,0,1,221.63,307.58Z" style="fill:#263238">
		</path>
		<path d="M248,305.49l2.22,2.84H236.65l-8.54-15.27H238l2.21,2.83h-7.3l2.07,3.32h6.89L244,302h-7.27l2.22,3.53Z" style="fill:#263238">
		</path>
		<path d="M106.85,373.12V359a1.91,1.91,0,0,1,1.91-1.91h14.12a1.91,1.91,0,0,1,1.36,3.26l-14.12,14.12A1.91,1.91,0,0,1,106.85,373.12Z" style="fill:#263238">
		</path>
		<path d="M106.85,373.12V359a1.91,1.91,0,0,1,1.91-1.91h14.12a1.91,1.91,0,0,1,1.36,3.26l-14.12,14.12A1.91,1.91,0,0,1,106.85,373.12Z" style="fill:#fff;opacity:0.5">
		</path>
		<circle cx="115.83" cy="366.06" r="7.41" transform="translate(-267.05 394.69) rotate(-76.72)" style="fill:#5837D0">
		</circle>
		<circle cx="115.83" cy="366.06" r="7.41" transform="translate(-267.05 394.69) rotate(-76.72)" style="fill:#fff;opacity:0.5">
		</circle>
		<g style="opacity:0.8">
			<path d="M117.52,362.77a3.63,3.63,0,0,0-.85-.32,1,1,0,0,1-.84-1v-.26a1,1,0,0,1,1.25-1,6,6,0,0,1,1.6.59,1,1,0,0,1,.3,1.58l-.16.19A1,1,0,0,1,117.52,362.77Z" style="fill:#fff">
			</path>
		</g>
		<g style="opacity:0.8">
			<path d="M115.83,372.07a6,6,0,0,1-5.88-4.75,1,1,0,0,1,1-1.26h.25a1.06,1.06,0,0,1,1,.85,3.7,3.7,0,0,0,7.21,0,1.07,1.07,0,0,1,1-.85h.25a1,1,0,0,1,1,1.26A6,6,0,0,1,115.83,372.07Z" style="fill:#fff">
			</path>
		</g>
		<path d="M299.8,373.12V359a1.91,1.91,0,0,0-1.91-1.91H283.77a1.91,1.91,0,0,0-1.35,3.26l14.12,14.12A1.91,1.91,0,0,0,299.8,373.12Z" style="fill:#263238">
		</path>
		<path d="M299.8,373.12V359a1.91,1.91,0,0,0-1.91-1.91H283.77a1.91,1.91,0,0,0-1.35,3.26l14.12,14.12A1.91,1.91,0,0,0,299.8,373.12Z" style="fill:#fff;opacity:0.5">
		</path>
		<circle cx="290.83" cy="366.06" r="7.41" transform="translate(-158.67 494.66) rotate(-67.5)" style="fill:#5837D0">
		</circle>
		<circle cx="290.83" cy="366.06" r="7.41" transform="translate(-158.67 494.66) rotate(-67.5)" style="fill:#fff;opacity:0.5">
		</circle>
		<g style="opacity:0.8">
			<path d="M289.13,362.77a3.63,3.63,0,0,1,.85-.32,1.05,1.05,0,0,0,.85-1v-.26a1,1,0,0,0-1.26-1,6,6,0,0,0-1.6.59,1,1,0,0,0-.3,1.58l.16.19A1,1,0,0,0,289.13,362.77Z" style="fill:#fff">
			</path>
		</g>
		<g style="opacity:0.8">
			<path d="M290.83,372.07a6,6,0,0,0,5.87-4.75,1,1,0,0,0-1-1.26h-.25a1.07,1.07,0,0,0-1,.85,3.7,3.7,0,0,1-7.21,0,1.06,1.06,0,0,0-1-.85H286a1,1,0,0,0-1,1.26A6,6,0,0,0,290.83,372.07Z" style="fill:#fff">
			</path>
		</g>
		<path d="M262.24,331.43l30-7.09a6.66,6.66,0,0,0,5-7.72L295.45,307a6.65,6.65,0,0,0-9.34-4.8l-19.93,9.25a12.25,12.25,0,0,0-6.76,8.23l-1.74,7.15A3.8,3.8,0,0,0,262.24,331.43Z" style="fill:#fff;opacity:0.5">
		</path>
		<circle cx="270.13" cy="320.07" r="7.41" style="fill:#fff;opacity:0.5">
		</circle>
		<g style="opacity:0.9">
			<path d="M268.43,316.77a4.19,4.19,0,0,1,.86-.31,1,1,0,0,0,.84-1v-.25a1,1,0,0,0-1.25-1,5.58,5.58,0,0,0-1.61.59,1,1,0,0,0-.3,1.57l.17.2A1,1,0,0,0,268.43,316.77Z" style="fill:#fff">
			</path>
		</g>
		<g style="opacity:0.9">
			<path d="M270.13,326.07a6,6,0,0,0,5.88-4.75,1,1,0,0,0-1-1.25h-.25a1,1,0,0,0-1,.85,3.71,3.71,0,0,1-7.22,0,1,1,0,0,0-1-.85h-.25a1,1,0,0,0-1,1.25A6,6,0,0,0,270.13,326.07Z" style="fill:#fff">
			</path>
		</g>
		<circle cx="286.74" cy="313.41" r="7.41" transform="translate(-112.54 458.39) rotate(-67.5)" style="fill:#fff;opacity:0.5">
		</circle>
		<g style="opacity:0.9">
			<path d="M285,310.11a3.68,3.68,0,0,1,.86-.31,1.05,1.05,0,0,0,.84-1v-.25a1,1,0,0,0-1.25-1,6.23,6.23,0,0,0-1.61.59,1,1,0,0,0-.3,1.58l.17.19A1,1,0,0,0,285,310.11Z" style="fill:#fff">
			</path>
		</g>
		<g style="opacity:0.9">
			<path d="M286.74,319.41a6,6,0,0,0,5.88-4.75,1,1,0,0,0-1-1.25h-.25a1,1,0,0,0-1,.84,3.71,3.71,0,0,1-7.22,0,1,1,0,0,0-1-.84h-.25a1,1,0,0,0-1,1.25A6,6,0,0,0,286.74,319.41Z" style="fill:#fff">
			</path>
		</g>
		<path d="M284.51,280.8c-7.53-2.51-17.09-5.52-21.65-6.22-13.64-2.07-51.91-.42-59.6-.06-7.68-.36-46-2-59.59.06-4.76.73-15,4-22.66,6.55l-.24.61H284.88Z" style="fill:#263238">
		</path>
		<g style="opacity:0.2">
			<polygon points="188.83 235.35 166.56 235.35 147.34 281.74 169.62 281.74 188.83 235.35" style="fill:#fff">
			</polygon>
			<path d="M276.59,260.67l-8.71-22.14a5,5,0,0,0-4.66-3.18H203.39l-19.21,46.39h83.68Z" style="fill:#fff">
			</path>
		</g>
		<path d="M245.72,336.36V340H159.93v-3.68h-6.51v56a5.4,5.4,0,0,0,5.4,5.4h4.34a4.21,4.21,0,0,0,4.21-4.21v-3.72h-7.44v-20.6h85.79v20.6h-7.44v3.72a4.21,4.21,0,0,0,4.21,4.21h4.34a5.4,5.4,0,0,0,5.4-5.4v-56Zm-85.79,25.78v-15h85.79v15Z" style="fill:#263238">
		</path>
		<path d="M245.72,336.36V340H159.93v-3.68h-6.51v56a5.4,5.4,0,0,0,5.4,5.4h4.34a4.21,4.21,0,0,0,4.21-4.21v-3.72h-7.44v-20.6h85.79v20.6h-7.44v3.72a4.21,4.21,0,0,0,4.21,4.21h4.34a5.4,5.4,0,0,0,5.4-5.4v-56Zm-85.79,25.78v-15h85.79v15Z" style="opacity:0.6000000000000001">
		</path>
	</g>
</svg>
